Coordinates
version=1
nRows=7
nColumns=40
inDegrees=yes

Units are S.I. units (second, meters, Newtons, ...)
Angles are in degrees.

endheader
time	pelvis_tilt	pelvis_list	pelvis_rotation	pelvis_tx	pelvis_ty	pelvis_tz	hip_flexion_r	hip_adduction_r	hip_rotation_r	knee_angle_r	knee_angle_r_beta	ankle_angle_r	subtalar_angle_r	mtp_angle_r	hip_flexion_l	hip_adduction_l	hip_rotation_l	knee_angle_l	knee_angle_l_beta	ankle_angle_l	subtalar_angle_l	mtp_angle_l	lumbar_extension	lumbar_bending	lumbar_rotation	arm_flex_r	arm_add_r	arm_rot_r	elbow_flex_r	pro_sup_r	wrist_flex_r	wrist_dev_r	arm_flex_l	arm_add_l	arm_rot_l	elbow_flex_l	pro_sup_l	wrist_flex_l	wrist_dev_l
     17.66314286	     -3.24677054	     -6.41543271	      4.86457805	      1.04337312	      0.92533532	      0.50246149	      0.24819377	      6.30721297	    -18.57032836	      9.15715513	      9.15715513	     14.68514903	      7.61987421	     -5.08329335	     29.13284612	     -9.35285739	      1.11431507	     27.85326014	     27.85326014	      8.73193559	    -10.83230253	      9.55850897	     -9.76799166	      7.40476501	      4.37123523	     34.58493396	    -15.39642969	     -0.78608313	     74.65582007	     44.66725881	      0.00000000	      0.00000000	     -5.71588788	     -6.56235045	     -3.35860272	     30.70509432	     45.82349566	      0.00000000	      0.00000000
     17.67628571	     -3.36973899	     -6.52016784	      4.66103263	      1.04424816	      0.92451094	      0.50051503	     -0.02778286	      6.26743031	    -18.34675701	      9.22564017	      9.22564017	     14.94033030	      7.73347698	     -5.15595572	     28.68174953	     -9.27146954	      1.28422305	     27.88546847	     27.88546847	      8.84961100	    -10.87781949	      9.49930682	     -9.54539483	      7.46174124	      4.27971294	     34.40804803	    -15.51542882	     -0.83363735	     74.56399709	     44.67202606	      0.00000000	      0.00000000	     -5.72973413	     -6.58860917	     -3.37745882	     30.75735024	     45.82582398	      0.00000000	      0.00000000
     17.68942857	     -3.43058129	     -6.59240355	      4.48547651	      1.04513285	      0.92394319	      0.49840056	     -0.33877931	      6.16781767	    -18.12898837	      9.36241005	      9.36241005	     15.19042956	      7.84518551	     -5.20412589	     28.17209478	     -9.15758329	      1.43926418	     27.87866222	     27.87866222	      9.06027008	    -11.05823312	      9.38542215	     -9.44308603	      7.47207121	      4.15623019	     34.00161689	    -15.70673998	     -0.90683384	     74.33531171	     44.68178408	      0.00000000	      0.00000000	     -5.71770138	     -6.65395809	     -3.41866934	     30.85683590	     45.83170099	      0.00000000	      0.00000000
     17.70257143	     -3.49569159	     -6.43954721	      4.33709442	      1.04578955	      0.92371572	      0.49590804	     -0.40150771	      5.65619953	    -18.48001325	     10.06433888	     10.06433888	     16.01181614	      8.53797414	     -4.01331297	     27.46343333	     -8.64840720	      1.92379868	     27.39877289	     27.39877289	      8.09704077	    -12.51631658	      7.85982388	     -9.37365259	      7.17172654	      4.45126746	     33.41389827	    -15.97502314	     -1.99874083	     73.41497012	     44.77947275	      0.00000000	      0.00000000	     -5.68115845	     -6.72076913	     -3.96206475	     31.92463087	     45.90324724	      0.00000000	      0.00000000
     17.71571429	     -3.66450375	     -6.50956308	      4.23056554	      1.04627114	      0.92344274	      0.49334689	     -0.56013394	      5.50971379	    -18.31186746	     10.17452705	     10.17452705	     15.95187815	      8.60659498	     -3.98949519	     27.21383683	     -8.53696465	      1.94742548	     27.45074278	     27.45074278	      8.41891102	    -12.61990237	      7.71559922	     -9.27148888	      7.26222462	      4.14494743	     33.14201523	    -16.09745828	     -2.03459766	     73.29820708	     44.78410385	      0.00000000	      0.00000000	     -5.49093454	     -6.79344235	     -3.97639907	     31.98633392	     45.90817369	      0.00000000	      0.00000000
     17.72885714	     -3.76396493	     -6.37254851	      4.15575959	      1.04674903	      0.92343074	      0.49051897	     -0.54356036	      5.02040264	    -18.31683599	     10.85573033	     10.85573033	     16.25934043	      8.59098105	     -3.85715669	     26.86567092	     -8.17662826	      2.03028741	     27.47480216	     27.47480216	      8.53976371	    -13.03715835	      7.38742423	     -9.21706275	      6.99034644	      4.28605825	     32.25705619	    -16.65667785	     -2.30805014	     72.25458419	     44.83294174	      0.00000000	      0.00000000	     -4.97208369	     -6.95408699	     -4.13680596	     32.09538455	     45.93712413	      0.00000000	      0.00000000
     17.74200000	     -3.87819100	     -6.40508076	      4.12842470	      1.04715890	      0.92355236	      0.48756863	     -0.71360406	      4.80045207	    -18.24491761	     11.05529599	     11.05529599	     16.22383370	      8.62769724	     -3.81340362	     26.64526642	     -8.02116027	      2.04506781	     27.60853743	     27.60853743	      8.87942675	    -13.21850784	      7.21013685	     -9.20135734	      7.01385665	      3.84119204	     31.68636191	    -16.78263181	     -2.37625446	     71.95298646	     44.84421982	      0.00000000	      0.00000000	     -4.64032286	     -7.08378903	     -4.16724457	     32.17109014	     45.94637765	      0.00000000	      0.00000000
